<svg width="308" height="92" viewBox="0 0 308 92" fill="none" xmlns="http://www.w3.org/2000/svg">
<rect x="0.545213" y="0.545213" width="306.41" height="90.5053" rx="10.359" fill="black" stroke="white" stroke-width="1.09043"/>
<path d="M82.0332 29.5625C82.8389 24.3988 82.0332 20.8882 79.2503 17.7083C76.1938 14.2052 70.6686 12.7043 63.6021 12.7043H43.0866C42.3873 12.7037 41.7107 12.9541 41.1788 13.4104C40.6469 13.8668 40.2946 14.499 40.1854 15.1933L31.6443 69.6462C31.6042 69.8987 31.6191 70.157 31.688 70.4033C31.7568 70.6495 31.878 70.8778 32.0431 71.0723C32.2083 71.2669 32.4134 71.4232 32.6445 71.5304C32.8755 71.6375 33.1269 71.693 33.3814 71.6931H46.047L45.1747 77.2654C45.14 77.4865 45.1534 77.7126 45.214 77.9281C45.2745 78.1435 45.3808 78.3432 45.5256 78.5134C45.6703 78.6836 45.85 78.8202 46.0523 78.9139C46.2546 79.0075 46.4747 79.056 46.6974 79.056H57.3784C57.9903 79.0562 58.5821 78.8366 59.047 78.4367C59.512 78.0368 59.8194 77.483 59.9137 76.8753L60.0209 76.333L62.0314 63.5129L62.1608 62.8033C62.2559 62.1963 62.5636 61.6434 63.0285 61.2443C63.4933 60.8451 64.0847 60.626 64.6961 60.6264H66.2927C76.641 60.6264 84.7349 56.4026 87.1002 44.188C88.0907 39.0838 87.5807 34.8228 84.964 31.8286C84.1362 30.8993 83.1452 30.1311 82.0406 29.5625" fill="#009ADE"/>
<path d="M82.0332 29.5625C82.8389 24.3988 82.0332 20.8882 79.2503 17.7083C76.1938 14.2052 70.6686 12.7043 63.6021 12.7043H43.0866C42.3873 12.7037 41.7107 12.9541 41.1788 13.4104C40.6469 13.8668 40.2946 14.499 40.1854 15.1933L31.6443 69.6462C31.6042 69.8987 31.6191 70.157 31.688 70.4033C31.7568 70.6495 31.878 70.8778 32.0431 71.0723C32.2083 71.2669 32.4134 71.4232 32.6445 71.5304C32.8755 71.6375 33.1269 71.693 33.3814 71.6931H46.047L49.2475 51.4135L49.1478 52.0525C49.2537 51.3584 49.6035 50.7254 50.1336 50.2682C50.6638 49.8109 51.3393 49.5596 52.0379 49.5598H58.0584C69.885 49.5598 79.1246 44.7304 81.8448 30.7699C81.9224 30.3575 81.9926 29.9563 82.0517 29.5625" fill="#002169"/>
<path d="M52.6477 29.6293C52.7142 29.217 52.8786 28.8269 53.127 28.4919C53.3753 28.1569 53.7002 27.887 54.0743 27.705C54.4202 27.5378 54.7992 27.4514 55.183 27.4524H71.2673C73.0421 27.4345 74.8156 27.5588 76.5708 27.8239C77.0365 27.8982 77.4874 27.9874 77.9272 28.084C78.367 28.1805 78.792 28.292 79.2022 28.4109L79.812 28.604C80.5764 28.855 81.3182 29.1706 82.0295 29.5476C82.8352 24.3839 82.0295 20.8734 79.2466 17.6934C76.1901 14.1903 70.6649 12.6895 63.5984 12.6895H43.0866C42.3873 12.6888 41.7107 12.9392 41.1788 13.3955C40.6469 13.8519 40.2946 14.4841 40.1854 15.1784L31.6443 69.6461C31.6042 69.8987 31.6191 70.157 31.688 70.4032C31.7568 70.6495 31.878 70.8777 32.0431 71.0723C32.2083 71.2669 32.4134 71.4232 32.6445 71.5303C32.8755 71.6375 33.1269 71.693 33.3814 71.693H46.047L49.2475 51.4134L52.6477 29.6293Z" fill="#002F87"/>
<path d="M221.633 26.0002H208.282C207.837 25.9944 207.405 26.1488 207.064 26.4353C206.723 26.7217 206.496 27.121 206.425 27.5606L201.037 61.7432C201.012 61.9018 201.022 62.064 201.065 62.2186C201.109 62.3733 201.185 62.5166 201.289 62.6389C201.394 62.7613 201.523 62.8597 201.669 62.9274C201.814 62.9951 201.973 63.0305 202.133 63.0312H209.001C209.31 63.0306 209.609 62.92 209.844 62.7192C210.078 62.5183 210.234 62.2404 210.283 61.9351L211.806 52.2439C211.876 51.8032 212.102 51.4023 212.443 51.1147C212.784 50.827 213.218 50.6717 213.664 50.6772H217.881C226.662 50.6772 231.727 46.4291 233.052 38.0074C233.672 34.2919 233.052 31.431 231.356 29.406C229.43 27.1767 226.073 26.0002 221.633 26.0002ZM223.169 38.4842C222.439 43.271 218.785 43.271 215.249 43.271H213.243L214.648 34.3352C214.691 34.0732 214.825 33.8348 215.027 33.6625C215.229 33.4901 215.485 33.395 215.751 33.394H216.679C219.082 33.394 221.355 33.394 222.525 34.7687C223.206 35.5861 223.417 36.806 223.151 38.4842H223.169Z" fill="white"/>
<path d="M126.535 26.0002H113.203C112.767 26.0096 112.347 26.1724 112.019 26.46C111.691 26.7477 111.474 27.1417 111.407 27.5731L106.014 61.7557C105.989 61.9148 105.998 62.0776 106.042 62.2326C106.086 62.3877 106.163 62.5313 106.268 62.6538C106.373 62.7762 106.503 62.8745 106.649 62.9418C106.795 63.0091 106.955 63.0439 107.116 63.0437H113.476C113.922 63.0492 114.355 62.8939 114.696 62.6062C115.037 62.3185 115.263 61.9177 115.333 61.477L116.788 52.2564C116.858 51.8209 117.079 51.4242 117.414 51.1372C117.749 50.8502 118.174 50.6916 118.615 50.6897H122.832C131.613 50.6897 136.685 46.4416 138.01 38.0198C138.629 34.3044 138.01 31.4434 136.307 29.4185C134.357 27.1768 130.994 26.0002 126.535 26.0002ZM128.071 38.4843C127.347 43.2711 123.693 43.2711 120.157 43.2711H118.145L119.557 34.3353C119.598 34.0738 119.731 33.8355 119.931 33.6631C120.132 33.4906 120.388 33.3953 120.653 33.3941H121.575C123.978 33.3941 126.257 33.3941 127.427 34.7688C128.127 35.5862 128.337 36.8061 128.071 38.4843Z" fill="white"/>
<path d="M166.378 38.3292H159.993C159.728 38.3291 159.472 38.4241 159.271 38.5967C159.07 38.7694 158.937 39.0085 158.897 39.2705L158.619 41.0539L158.173 40.4347C156.786 38.4283 153.708 37.7595 150.63 37.7595C143.577 37.7595 137.552 43.1036 136.388 50.6027C135.768 54.3182 136.648 57.9099 138.766 60.4055C140.71 62.6967 143.49 63.6503 146.816 63.6503C148.458 63.6672 150.087 63.3529 151.606 62.7263C153.124 62.0996 154.5 61.1734 155.653 60.0029L155.368 61.774C155.343 61.9326 155.352 62.0948 155.396 62.2494C155.439 62.404 155.516 62.5474 155.62 62.6698C155.724 62.7921 155.853 62.8904 155.999 62.9582C156.145 63.0259 156.303 63.0613 156.464 63.062H162.186C162.632 63.0675 163.065 62.9122 163.406 62.6246C163.747 62.3369 163.973 61.9361 164.043 61.4953L167.493 39.6482C167.524 39.4856 167.519 39.3179 167.477 39.1576C167.435 38.9973 167.358 38.8484 167.251 38.7219C167.144 38.5953 167.01 38.4944 166.859 38.4265C166.708 38.3585 166.544 38.3253 166.378 38.3292ZM157.486 50.7575C157.234 52.4775 156.362 54.0461 155.035 55.1683C153.707 56.2905 152.015 56.8889 150.277 56.851C149.481 56.9315 148.677 56.8178 147.934 56.5197C147.191 56.2216 146.532 55.7479 146.012 55.1393C145.492 54.5306 145.128 53.805 144.949 53.0247C144.771 52.2443 144.785 51.4324 144.989 50.6585C145.233 48.9398 146.093 47.3685 147.411 46.2381C148.728 45.1076 150.412 44.4953 152.148 44.5155C152.941 44.4734 153.734 44.6076 154.47 44.9085C155.205 45.2094 155.865 45.6694 156.402 46.2556C156.899 46.882 157.253 47.6094 157.441 48.3869C157.628 49.1645 157.643 49.9735 157.486 50.7575Z" fill="white"/>
<path d="M261.457 38.3292H255.073C254.808 38.3291 254.552 38.4241 254.35 38.5967C254.149 38.7694 254.017 39.0085 253.977 39.2705L253.692 41.0539L253.246 40.4347C251.865 38.4283 248.788 37.7595 245.71 37.7595C238.657 37.7595 232.631 43.1036 231.467 50.6027C230.848 54.3182 231.721 57.9099 233.845 60.4055C235.79 62.6967 238.57 63.6503 241.895 63.6503C243.541 63.664 245.172 63.3453 246.692 62.7132C248.211 62.0812 249.588 61.1488 250.738 59.972L250.453 61.743C250.428 61.9017 250.438 62.0639 250.481 62.2185C250.525 62.3731 250.601 62.5165 250.706 62.6388C250.81 62.7611 250.939 62.8595 251.085 62.9272C251.23 62.9949 251.389 63.0303 251.549 63.0311H257.296C257.742 63.0366 258.175 62.8813 258.517 62.5936C258.858 62.3059 259.084 61.9051 259.154 61.4643L262.603 39.6173C262.629 39.4544 262.618 39.2879 262.572 39.1296C262.525 38.9714 262.444 38.8254 262.335 38.7022C262.225 38.579 262.09 38.4816 261.938 38.4171C261.786 38.3526 261.622 38.3226 261.457 38.3292ZM252.559 50.7575C252.31 52.4775 251.44 54.0468 250.113 55.1694C248.786 56.2919 247.094 56.8901 245.357 56.851C244.561 56.9315 243.757 56.8178 243.014 56.5197C242.271 56.2216 241.611 55.7479 241.091 55.1393C240.572 54.5306 240.207 53.805 240.029 53.0247C239.851 52.2443 239.864 51.4324 240.069 50.6585C240.312 48.9409 241.172 47.3704 242.488 46.2401C243.804 45.1098 245.486 44.4968 247.221 44.5155C248.015 44.4721 248.808 44.6057 249.544 44.9067C250.28 45.2076 250.939 45.6684 251.475 46.2556C251.972 46.882 252.327 47.6094 252.514 48.3869C252.701 49.1645 252.716 49.9735 252.559 50.7575Z" fill="white"/>
<path d="M200.375 38.3293H193.959C193.658 38.3302 193.361 38.4045 193.094 38.5459C192.828 38.6872 192.6 38.8913 192.43 39.1406L183.574 52.1757L179.828 39.6545C179.714 39.272 179.479 38.9365 179.159 38.6978C178.839 38.4591 178.45 38.3299 178.051 38.3293H171.747C171.57 38.3297 171.395 38.3723 171.238 38.4535C171.081 38.5346 170.945 38.6521 170.842 38.7961C170.739 38.9402 170.672 39.1066 170.647 39.2817C170.621 39.4568 170.637 39.6356 170.694 39.8032L177.76 60.5356L171.115 69.911C170.997 70.0769 170.926 70.2722 170.912 70.4755C170.897 70.6787 170.939 70.8822 171.032 71.0633C171.126 71.2444 171.267 71.3962 171.441 71.5021C171.616 71.608 171.815 71.6639 172.019 71.6635H178.429C178.727 71.6637 179.022 71.5917 179.287 71.4537C179.552 71.3158 179.78 71.1158 179.952 70.8709L201.291 40.0756C201.406 39.9084 201.473 39.713 201.485 39.5104C201.498 39.3078 201.454 39.1057 201.36 38.926C201.265 38.7463 201.124 38.5957 200.95 38.4906C200.777 38.3854 200.578 38.3297 200.375 38.3293Z" fill="white"/>
<path d="M268.981 26.9537L263.507 61.7555C263.482 61.9141 263.492 62.0763 263.535 62.2309C263.579 62.3855 263.655 62.5289 263.759 62.6512C263.863 62.7735 263.993 62.8719 264.138 62.9396C264.284 63.0073 264.443 63.0428 264.603 63.0435H270.108C270.554 63.049 270.988 62.8937 271.329 62.606C271.67 62.3183 271.896 61.9175 271.966 61.4768L277.366 27.2943C277.391 27.1354 277.381 26.9729 277.337 26.8182C277.293 26.6634 277.216 26.5201 277.111 26.3981C277.007 26.2762 276.876 26.1785 276.73 26.1119C276.584 26.0453 276.424 26.0113 276.264 26.0124H270.108C269.838 26.0048 269.574 26.0963 269.367 26.2696C269.159 26.443 269.022 26.6863 268.981 26.9537Z" fill="white"/>
</svg>
