<svg width="64" height="62" viewBox="0 0 64 62" fill="none" xmlns="http://www.w3.org/2000/svg">
<path d="M52.5657 14.2522C52.5657 12.2203 50.8571 10.5797 48.7569 10.5797C46.6565 10.5797 44.9464 12.2203 44.9464 14.2522C44.9464 16.2766 46.6565 17.9172 48.7569 17.9172C50.8571 17.9172 52.5657 16.2766 52.5657 14.2522Z" fill="url(#paint0_linear_11_105)"/>
<path d="M57.6409 42.9196C57.4999 45.9003 56.9826 47.5198 56.5532 48.5954C55.9763 50.0215 55.2883 51.0413 54.1723 52.1109C53.0688 53.1804 52.0108 53.8421 50.5312 54.392C49.4152 54.812 47.7286 55.312 44.6362 55.4541C41.2929 55.5961 40.3023 55.6263 31.8242 55.6263C23.3539 55.6263 22.3554 55.5961 19.0121 55.4541C15.9197 55.312 14.241 54.812 13.1249 54.392C11.6375 53.8421 10.5873 53.1804 9.47762 52.1109C8.36002 51.0413 7.67197 50.0215 7.103 48.5954C6.67345 47.5198 6.14844 45.9003 6.01513 42.9196C5.8522 39.6973 5.82234 38.7274 5.82234 30.5725C5.82234 22.4011 5.8522 21.4386 6.01513 18.2163C6.14844 15.2357 6.67345 13.6177 7.103 12.5329C7.67197 11.1084 8.36002 10.0946 9.47762 9.02505C10.5873 7.95705 11.6375 7.29377 13.1249 6.7379C14.241 6.31641 15.9197 5.82388 19.0121 5.6819C22.3554 5.53982 23.3539 5.50356 31.8242 5.50356C40.3023 5.50356 41.2929 5.53982 44.6362 5.6819C47.7286 5.82388 49.4152 6.31641 50.5312 6.7379C52.0108 7.29377 53.0688 7.95705 54.1723 9.02505C55.2883 10.0946 55.9763 11.1084 56.5532 12.5329C56.9826 13.6177 57.4999 15.2357 57.6409 18.2163C57.7961 21.4386 57.8337 22.4011 57.8337 30.5725C57.8337 38.7274 57.7961 39.6973 57.6409 42.9196ZM63.3511 17.9655C63.1959 14.7084 62.6629 12.4831 61.8714 10.5449C61.0658 8.53411 59.9858 6.83002 58.2178 5.12592C56.4576 3.42942 54.6896 2.3885 52.6033 1.60296C50.5845 0.847561 48.2835 0.327835 44.9026 0.185863C41.5217 0.0287094 40.4418 4.19617e-05 31.8242 4.19617e-05C23.2144 4.19617e-05 22.1266 0.0287094 18.7457 0.185863C15.3726 0.327835 13.0732 0.847561 11.045 1.60296C8.96661 2.3885 7.19857 3.42942 5.43841 5.12592C3.67037 6.83002 2.59038 8.53411 1.77689 10.5449C0.99315 12.4831 0.46027 14.7084 0.29722 17.9655C0.149923 21.2242 0.112305 22.2666 0.112305 30.5725C0.112305 38.8709 0.149923 39.9117 0.29722 43.1704C0.46027 46.4215 0.99315 48.6452 1.77689 50.5926C2.59038 52.5958 3.67037 54.3075 5.43841 56.004C7.19857 57.7005 8.96661 58.749 11.045 59.5331C13.0732 60.2884 15.3726 60.8021 18.7457 60.9516C22.1266 61.1012 23.2144 61.1375 31.8242 61.1375C40.4418 61.1375 41.5217 61.1012 44.9026 60.9516C48.2835 60.8021 50.5845 60.2884 52.6033 59.5331C54.6896 58.749 56.4576 57.7005 58.2178 56.004C59.9858 54.3075 61.0658 52.5958 61.8714 50.5926C62.6629 48.6452 63.1959 46.4215 63.3511 43.1704C63.5063 39.9117 63.5439 38.8709 63.5439 30.5725C63.5439 22.2666 63.5063 21.2242 63.3511 17.9655Z" fill="url(#paint1_linear_11_105)"/>
<path d="M31.8242 40.7533C25.9887 40.7533 21.2535 36.1969 21.2535 30.5725C21.2535 24.939 25.9887 20.3767 31.8242 20.3767C37.6613 20.3767 42.4027 24.939 42.4027 30.5725C42.4027 36.1969 37.6613 40.7533 31.8242 40.7533ZM31.8242 14.8656C22.8288 14.8656 15.5435 21.9024 15.5435 30.5725C15.5435 39.235 22.8288 46.2644 31.8242 46.2644C40.8195 46.2644 48.1127 39.235 48.1127 30.5725C48.1127 21.9024 40.8195 14.8656 31.8242 14.8656Z" fill="url(#paint2_linear_11_105)"/>
<defs>
<linearGradient id="paint0_linear_11_105" x1="0.68442" y1="60.5053" x2="56.1407" y2="2.96834" gradientUnits="userSpaceOnUse">
<stop stop-color="#FFD521"/>
<stop offset="0.05" stop-color="#FFD521"/>
<stop offset="0.501119" stop-color="#F50000"/>
<stop offset="0.95" stop-color="#B900B4"/>
<stop offset="0.950079" stop-color="#B900B4"/>
<stop offset="1" stop-color="#B900B4"/>
</linearGradient>
<linearGradient id="paint1_linear_11_105" x1="0.684449" y1="60.5815" x2="56.1862" y2="2.99704" gradientUnits="userSpaceOnUse">
<stop stop-color="#FFD521"/>
<stop offset="0.05" stop-color="#FFD521"/>
<stop offset="0.501119" stop-color="#F50000"/>
<stop offset="0.95" stop-color="#B900B4"/>
<stop offset="0.950079" stop-color="#B900B4"/>
<stop offset="1" stop-color="#B900B4"/>
</linearGradient>
<linearGradient id="paint2_linear_11_105" x1="0.699387" y1="60.583" x2="56.1877" y2="3.01239" gradientUnits="userSpaceOnUse">
<stop stop-color="#FFD521"/>
<stop offset="0.05" stop-color="#FFD521"/>
<stop offset="0.501119" stop-color="#F50000"/>
<stop offset="0.95" stop-color="#B900B4"/>
<stop offset="0.950079" stop-color="#B900B4"/>
<stop offset="1" stop-color="#B900B4"/>
</linearGradient>
</defs>
</svg>
