<svg width="62" height="60" viewBox="0 0 62 60" fill="none" xmlns="http://www.w3.org/2000/svg">
<path fill-rule="evenodd" clip-rule="evenodd" d="M14.0021 59.8134C12.6285 59.7664 10.8582 59.6629 10.0535 59.5065C8.82526 59.2677 7.66531 58.9056 6.70067 58.4323C5.5673 57.8761 4.55152 57.1666 3.67441 56.3234C2.7953 55.4787 2.0554 54.4997 1.47548 53.4069C0.985201 52.4831 0.609344 51.3731 0.360249 50.1972C0.194572 49.4147 0.0850002 47.6975 0.0353289 46.3664C0.0151861 45.8224 0.00485113 45.1183 0.00485113 44.7936L0 15.5941C0 15.2707 0.0102296 14.5664 0.0302668 14.0218C0.0790945 12.6994 0.186558 10.9949 0.34907 10.2201C0.597005 9.03764 0.973179 7.92073 1.46472 6.99197C2.04243 5.90066 2.77927 4.92286 3.65501 4.07827C4.53243 3.23196 5.54927 2.51958 6.68422 1.96113C7.6438 1.48919 8.79668 1.12721 10.0179 0.887377C10.8307 0.727863 12.6143 0.622366 13.9968 0.574644C14.5616 0.555149 15.293 0.545198 15.6302 0.545198L45.9578 0.540527C46.2938 0.540527 47.0253 0.550275 47.5907 0.569668C48.9643 0.616782 50.7348 0.720146 51.5393 0.876614C52.7676 1.11543 53.9277 1.47761 54.8922 1.95077C56.0256 2.50699 57.0414 3.21653 57.9185 4.05959C58.7975 4.90448 59.5374 5.88329 60.1174 6.97613C60.6076 7.90002 60.9836 9.00992 61.2326 10.1858C61.3984 10.9684 61.5079 12.6858 61.5575 14.0167C61.5778 14.5606 61.588 15.2647 61.588 15.5894L61.593 44.789C61.593 45.1125 61.5828 45.8167 61.5626 46.3613C61.5137 47.6837 61.4063 49.3882 61.2438 50.1629C60.9959 51.3455 60.6197 52.4623 60.1282 53.3911C59.5506 54.4824 58.8135 55.4603 57.938 56.3049C57.0604 57.1511 56.0436 57.8636 54.9087 58.4219C53.9491 58.8939 52.7963 59.2559 51.575 59.4957C50.7622 59.6552 48.9786 59.7607 47.5962 59.8084C47.0312 59.828 46.2999 59.8378 45.9626 59.8378L15.6351 59.8425C15.2991 59.8425 14.5676 59.8328 14.0021 59.8134Z" fill="#161722"/>
<mask id="mask0_6_249" style="mask-type:luminance" maskUnits="userSpaceOnUse" x="0" y="0" width="62" height="60">
<path fill-rule="evenodd" clip-rule="evenodd" d="M14.0021 59.8134C12.6285 59.7664 10.8582 59.6629 10.0535 59.5065C8.82526 59.2677 7.66531 58.9056 6.70067 58.4323C5.5673 57.8761 4.55152 57.1666 3.67441 56.3234C2.7953 55.4787 2.0554 54.4997 1.47548 53.4069C0.985201 52.4831 0.609344 51.3731 0.360249 50.1972C0.194572 49.4147 0.0850002 47.6975 0.0353289 46.3664C0.0151861 45.8224 0.00485113 45.1183 0.00485113 44.7936L0 15.5941C0 15.2707 0.0102296 14.5664 0.0302668 14.0218C0.0790945 12.6994 0.186558 10.9949 0.34907 10.2201C0.597005 9.03764 0.973179 7.92073 1.46472 6.99197C2.04243 5.90066 2.77927 4.92286 3.65501 4.07827C4.53243 3.23196 5.54927 2.51958 6.68422 1.96113C7.6438 1.48919 8.79668 1.12721 10.0179 0.887377C10.8307 0.727863 12.6143 0.622366 13.9968 0.574644C14.5616 0.555149 15.293 0.545198 15.6302 0.545198L45.9578 0.540527C46.2938 0.540527 47.0253 0.550275 47.5907 0.569668C48.9643 0.616782 50.7348 0.720146 51.5393 0.876614C52.7676 1.11543 53.9277 1.47761 54.8922 1.95077C56.0256 2.50699 57.0414 3.21653 57.9185 4.05959C58.7975 4.90448 59.5374 5.88329 60.1174 6.97613C60.6076 7.90002 60.9836 9.00992 61.2326 10.1858C61.3984 10.9684 61.5079 12.6858 61.5575 14.0167C61.5778 14.5606 61.588 15.2647 61.588 15.5894L61.593 44.789C61.593 45.1125 61.5828 45.8167 61.5626 46.3613C61.5137 47.6837 61.4063 49.3882 61.2438 50.1629C60.9959 51.3455 60.6197 52.4623 60.1282 53.3911C59.5506 54.4824 58.8135 55.4603 57.938 56.3049C57.0604 57.1511 56.0436 57.8636 54.9087 58.4219C53.9491 58.8939 52.7963 59.2559 51.575 59.4957C50.7622 59.6552 48.9786 59.7607 47.5962 59.8084C47.0312 59.828 46.2999 59.8378 45.9626 59.8378L15.6351 59.8425C15.2991 59.8425 14.5676 59.8328 14.0021 59.8134Z" fill="white"/>
</mask>
<g mask="url(#mask0_6_249)">
<path d="M25.5158 25.3599V23.5412C24.8605 23.4408 24.1985 23.3863 23.535 23.3782C20.4115 23.371 17.3674 24.325 14.8467 26.1008C12.3259 27.8766 10.4604 30.3815 9.52236 33.2499C8.58429 36.1184 8.62269 39.2004 9.63197 42.0464C10.6412 44.8924 12.5686 47.3534 15.1329 49.0705C13.2047 47.0819 11.9154 44.5986 11.4206 41.9201C10.9258 39.2417 11.2467 36.4827 12.3444 33.9759C13.4421 31.4691 15.2698 29.3217 17.607 27.7929C19.9442 26.264 22.6909 25.4191 25.5158 25.3599Z" fill="#65D2E9"/>
<path d="M25.8723 45.9064C27.5975 45.9044 29.2554 45.2619 30.5008 44.1125C31.7463 42.9631 32.4833 41.3955 32.5584 39.7361V8.97775H38.3963C38.2772 8.3352 38.2199 7.68344 38.2252 7.03076H30.2426V37.7579C30.1784 39.4251 29.446 41.0036 28.199 42.1621C26.9521 43.3206 25.2876 43.9691 23.5548 43.9716C22.479 43.9625 21.4207 43.7082 20.4666 43.2295C21.0848 44.0542 21.8968 44.7266 22.8362 45.1918C23.7756 45.657 24.8159 45.9019 25.8723 45.9064Z" fill="#65D2E9"/>
<path d="M49.2978 19.413V17.7035C47.1498 17.7035 45.0495 17.0931 43.26 15.949C44.8281 17.7054 46.9476 18.9226 49.2978 19.4165V19.413Z" fill="#65D2E9"/>
<path d="M43.26 15.9492C41.4978 14.0164 40.5262 11.5323 40.5265 8.96045H38.3963C38.6716 10.3821 39.2447 11.7348 40.0805 12.9363C40.9164 14.1379 41.9976 15.1629 43.2582 15.9492H43.26Z" fill="#E6436D"/>
<path d="M23.5404 31.069C22.0459 31.0771 20.597 31.5657 19.4239 32.4573C18.2508 33.3489 17.4208 34.5924 17.0657 35.9901C16.7107 37.3879 16.8509 38.8598 17.4641 40.1721C18.0773 41.4843 19.1284 42.5617 20.4504 43.233C19.7274 42.2715 19.2945 41.1363 19.1995 39.9529C19.1046 38.7694 19.3512 37.5837 19.9122 36.5267C20.4732 35.4697 21.3268 34.5826 22.3786 33.9634C23.4304 33.3442 24.6395 33.0169 25.8723 33.0178C26.5439 33.0246 27.211 33.1244 27.8531 33.3142V25.4933C27.1973 25.3989 26.5354 25.3497 25.8723 25.3459H25.5122V31.2927C24.8696 31.1269 24.2054 31.0516 23.5404 31.069Z" fill="#E6436D"/>
<path d="M49.2978 19.4128V25.3596C45.3204 25.3512 41.4466 24.1381 38.2252 21.8921V37.5183C38.2171 41.263 36.6664 44.8516 33.9133 47.4968C31.1602 50.1419 27.4297 51.6275 23.5404 51.6275C20.5322 51.6331 17.5964 50.7396 15.1382 49.0702C17.1427 51.1462 19.75 52.5928 22.6206 53.2217C25.4911 53.8505 28.4919 53.6325 31.2319 52.596C33.9719 51.5594 36.3242 49.7524 37.9824 47.4104C39.6406 45.0683 40.5277 42.2997 40.5283 39.4653V23.8876C43.7608 26.1189 47.6398 27.3155 51.6171 27.3083V19.6504C50.8376 19.6487 50.0603 19.5691 49.2978 19.4128Z" fill="#E6436D"/>
<path d="M38.2253 37.5221V21.8959C41.4595 24.1287 45.3416 25.3249 49.3213 25.3148V19.3681C46.9716 18.8907 44.8468 17.6907 43.2673 15.9492C42.0067 15.1629 40.9255 14.1379 40.0896 12.9363C39.2537 11.7348 38.6807 10.3821 38.4053 8.96045H32.5584V39.7378C32.5015 41.0774 32.0127 42.3667 31.1598 43.4265C30.3069 44.4863 29.1324 45.264 27.7993 45.6516C26.4663 46.0392 25.041 46.0174 23.7214 45.5893C22.4018 45.1611 21.2535 44.3479 20.436 43.2625C19.1136 42.5918 18.062 41.5149 17.4484 40.2027C16.8347 38.8906 16.6942 37.4186 17.0491 36.0208C17.4041 34.6229 18.2341 33.3794 19.4073 32.4878C20.5806 31.5963 22.0296 31.1079 23.5242 31.1003C24.196 31.1056 24.8633 31.2055 25.505 31.3968V25.4483C22.6646 25.4948 19.8997 26.336 17.5472 27.8692C15.1947 29.4025 13.3564 31.5616 12.2563 34.0833C11.1562 36.605 10.8419 39.3804 11.3518 42.0712C11.8616 44.7619 13.1735 47.2517 15.1275 49.237C17.6092 50.849 20.5473 51.684 23.5404 51.6278C27.4292 51.6278 31.1591 50.1427 33.9121 47.4984C36.6651 44.854 38.2162 41.2662 38.2253 37.5221Z" fill="white"/>
</g>
</svg>
