<svg width="68" height="65" viewBox="0 0 68 65" fill="none" xmlns="http://www.w3.org/2000/svg">
<path fill-rule="evenodd" clip-rule="evenodd" d="M50.8851 13.9824V27.6966H46.0994V13.9824H50.8851ZM34.1351 13.9824H38.9208V27.6966H34.1351V13.9824ZM17.3851 0.268066L5.42084 11.6966V52.8395H19.778V64.2681L31.7423 52.8395H41.3137L62.8494 32.2681V0.268066H17.3851ZM58.0637 29.9824L48.4923 39.1252H38.9208L29.3494 48.2681V39.1252H19.778V4.8395H58.0637V29.9824Z" fill="#0E0E0F"/>
<path fill-rule="evenodd" clip-rule="evenodd" d="M48.4923 39.1253L58.0637 29.9825V4.8396H19.778V39.1253H29.3494V48.2682L38.9208 39.1253H48.4923ZM34.1351 13.9825H38.9208V27.6967H34.1351V13.9825ZM50.8851 13.9825H46.0994V27.6967H50.8851V13.9825Z" fill="white"/>
</svg>
