<svg width="75" height="48" viewBox="0 0 75 48" fill="none" xmlns="http://www.w3.org/2000/svg">
<path d="M72.9305 7.65845C72.0882 4.72553 69.5961 2.41179 66.4255 1.61881C60.6927 0.195801 37.6912 0.195801 37.6912 0.195801C37.6912 0.195801 14.7015 0.195801 8.95696 1.61881C5.79806 2.40092 3.30604 4.71467 2.45196 7.65845C0.919312 12.9812 0.919312 24.0937 0.919312 24.0937C0.919312 24.0937 0.919312 35.2062 2.45196 40.5289C3.29434 43.4618 5.78636 45.7756 8.95696 46.5685C14.7015 47.9915 37.6912 47.9915 37.6912 47.9915C37.6912 47.9915 60.6927 47.9915 66.4255 46.5685C69.5844 45.7864 72.0765 43.4727 72.9305 40.5289C74.4632 35.2062 74.4632 24.0937 74.4632 24.0937C74.4632 24.0937 74.4632 12.9812 72.9305 7.65845Z" fill="#FF0000"/>
<path d="M30.3438 34.3371L49.4493 24.0936L30.3438 13.8501V34.3371Z" fill="white"/>
</svg>
